<svg width="549" height="477" viewBox="0 0 549 477" fill="none" xmlns="http://www.w3.org/2000/svg">
    <link xmlns="" type="text/css" id="dark-mode" rel="stylesheet" href=""/>
    <style xmlns="" type="text/css" id="dark-mode-custom-style"/>
    <path d="M358.163 0.511418L358.163 0.511416C386.477 0.325991 408.011 12.1406 423.489 35.7318C445.24 68.8763 467.014 101.998 488.786 135.116C506.253 161.686 523.718 188.254 541.169 214.828L541.587 214.554L541.169 214.828C546.659 223.188 549.055 230.621 548.392 237.687C547.73 244.752 544.002 251.544 537.049 258.604L537.405 258.955L537.049 258.604C509.102 287.006 481.126 315.388 453.15 343.77C417.179 380.263 381.208 416.757 345.296 453.297L345.296 453.297C329.936 468.944 311.398 476.467 289.65 476.467C270.783 476.467 251.916 476.475 233.05 476.483C195.317 476.5 157.584 476.517 119.851 476.467H119.851C111.471 476.467 104.509 473.93 99.9788 469.721C95.4611 465.524 93.3248 459.634 94.6181 452.807L94.6183 452.807C95.7486 446.794 100.11 440.613 104.638 436.014C153.01 387.299 201.563 338.792 250.126 290.274C259.847 280.563 269.568 270.851 279.288 261.137C288.533 251.898 293.499 244.847 294.222 237.306C294.945 229.764 291.412 221.872 284.091 210.991L283.917 210.732C241.862 148.172 199.806 85.6124 157.787 23.0524L157.785 23.0491C157.589 22.7616 157.392 22.475 157.195 22.1887C156.337 20.9422 155.483 19.7006 154.701 18.4084L154.697 18.4016C151.413 13.1646 150.853 8.77003 152.462 5.71029C154.068 2.65657 157.959 0.697142 164.135 0.62333C179.227 0.463444 194.337 0.493911 209.442 0.52437C215.483 0.536552 221.524 0.548733 227.562 0.548733H227.635H227.708H227.781H227.853H227.926H227.999H228.072H228.145H228.218H228.291H228.363H228.436H228.509H228.582H228.655H228.728H228.801H228.873H228.946H229.019H229.092H229.165H229.238H229.31H229.383H229.456H229.529H229.602H229.675H229.748H229.82H229.893H229.966H230.039H230.112H230.185H230.257H230.33H230.403H230.476H230.549H230.622H230.695H230.767H230.84H230.913H230.986H231.059H231.132H231.204H231.277H231.35H231.423H231.496H231.569H231.642H231.714H231.787H231.86H231.933H232.006H232.079H232.152H232.224H232.297H232.37H232.443H232.516H232.589H232.661H232.734H232.807H232.88H232.953H233.026H233.099H233.171H233.244H233.317H233.39H233.463H233.536H233.609H233.681H233.754H233.827H233.9H233.973H234.046H234.119H234.191H234.264H234.337H234.41H234.483H234.556H234.629H234.701H234.774H234.847H234.92H234.993H235.066H235.138H235.211H235.284H235.357H235.43H235.503H235.576H235.648H235.721H235.794H235.867H235.94H236.013H236.086H236.158H236.231H236.304H236.377H236.45H236.523H236.596H236.669H236.741H236.814H236.887H236.96H237.033H237.106H237.179H237.251H237.324H237.397H237.47H237.543H237.616H237.689H237.761H237.834H237.907H237.98H238.053H238.126H238.199H238.271H238.344H238.417H238.49H238.563H238.636H238.709H238.782H238.854H238.927H239H239.073H239.146H239.219H239.292H239.364H239.437H239.51H239.583H239.656H239.729H239.802H239.875H239.947H240.02H240.093H240.166H240.239H240.312H240.385H240.458H240.53H240.603H240.676H240.749H240.822H240.895H240.968H241.041H241.113H241.186H241.259H241.332H241.405H241.478H241.551H241.624H241.696H241.769H241.842H241.915H241.988H242.061H242.134H242.207H242.279H242.352H242.425H242.498H242.571H242.644H242.717H242.79H242.863H242.935H243.008H243.081H243.154H243.227H243.3H243.373H243.446H243.518H243.591H243.664H243.737H243.81H243.883H243.956H244.029H244.102H244.174H244.247H244.32H244.393H244.466H244.539H244.612H244.685H244.758H244.831H244.903H244.976H245.049H245.122H245.195H245.268H245.341H245.414H245.487H245.559H245.632H245.705H245.778H245.851H245.924H245.997H246.07H246.143H246.216H246.288H246.361H246.434H246.507H246.58H246.653H246.726H246.799H246.872H246.945H247.018H247.09H247.163H247.236H247.309H247.382H247.455H247.528H247.601H247.674H247.747H247.82H247.892H247.965H248.038H248.111H248.184H248.257H248.33H248.403H248.476H248.549H248.622H248.694H248.767H248.84H248.913H248.986H249.059H249.132H249.205H249.278H249.351H249.424H249.497H249.57H249.642H249.715H249.788H249.861H249.934H250.007H250.08H250.153H250.226H250.299H250.372H250.445H250.518H250.591H250.663H250.736H250.809H250.882H250.955H251.028H251.101H251.174H251.247H251.32H251.393H251.466H251.539H251.612H251.685H251.757H251.83H251.903H251.976H252.049H252.122H252.195H252.268H252.341H252.414H252.487H252.56H252.633H252.706H252.779H252.852H252.925H252.997H253.07H253.143H253.216H253.289H253.362H253.435H253.508H253.581H253.654H253.727H253.8H253.873H253.946H254.019H254.092H254.165H254.238H254.311H254.384H254.457H254.53H254.603H254.675H254.748H254.821H254.894H254.967H255.04H255.113H255.186H255.259H255.332H255.405H255.478H255.551H255.624H255.697H255.77H255.843H255.916H255.989H256.062H256.135H256.208H256.281H256.354H256.427H256.5H256.573H256.646H256.719H256.792H256.865H256.938H257.011H257.084H257.157H257.23H257.303H257.376H257.449H257.522H257.595H257.667H257.74H257.813H257.886H257.959H258.032H258.105H258.178H258.251H258.324H258.397H258.47H258.543H258.616H258.689H258.762H258.835H258.908H258.981H259.054H259.127H259.2H259.273H259.346H259.419H259.492H259.565H259.638H259.711H259.784H259.857H259.931H260.004H260.077H260.15H260.223H260.296H260.369H260.442H260.515H260.588H260.661H260.734H260.807H260.88H260.953H261.026H261.099H261.172H261.245H261.318H261.391H261.464H261.537H261.61H261.683H261.756H261.829H261.902H261.975H262.048H262.121H262.194H262.267H262.34H262.413H262.486H262.559H262.632H262.706H262.779H262.852H262.925H262.998H263.071H263.144H263.217H263.29H263.363H263.436H263.509H263.582H263.655H263.728H263.801H263.874H263.947H264.02H264.093H264.166H264.24H264.313H264.386H264.459H264.532H264.605H264.678H264.751H264.824H264.86C264.872 0.548733 264.885 0.548733 264.897 0.548733C274.452 0.548769 284.008 0.56288 293.565 0.576992C315.097 0.608787 336.63 0.640585 358.163 0.511418ZM101.472 112.589L101.472 112.59C117.367 137.301 133.554 161.809 149.74 186.316C157.507 198.076 165.274 209.836 173.008 221.619L173.426 221.344L173.008 221.619C177.381 228.276 179.313 233.272 178.823 237.99C178.333 242.709 175.405 247.278 169.71 253.044L169.71 253.044C156.692 266.253 143.657 279.446 130.622 292.638C104.555 319.021 78.4865 345.405 52.5516 371.921L52.5515 371.921C41.7799 382.945 29.1778 388.299 13.8591 388.225C-16.269 388.059 -46.3679 388.129 -76.4875 388.199C-80.2605 388.208 -84.0338 388.216 -87.8075 388.225C-91.541 388.225 -95.1188 388.063 -98.1723 386.945C-101.195 385.838 -103.718 383.788 -105.341 379.948L-105.342 379.946C-106.985 376.102 -106.746 372.879 -105.461 369.963C-104.163 367.015 -101.788 364.358 -99.1027 361.693L-99.1024 361.692C-63.1901 325.989 -27.3525 290.174 8.4845 254.359L8.49789 254.346C15.3122 247.536 18.9751 242.863 19.4323 237.774C19.8891 232.688 17.1313 227.33 11.658 219.2C6.03857 210.849 0.415627 202.501 -5.20693 194.155C-25.435 164.126 -45.658 134.105 -65.6984 103.946C-66.8535 102.196 -68.408 99.7037 -69.3732 97.3599C-69.8567 96.1859 -70.1788 95.0806 -70.2428 94.1426C-70.3067 93.2054 -70.1104 92.5059 -69.6442 92.0399C-66.5246 88.9216 -63.3401 88.9643 -59.9615 89.0097C-59.3285 89.0182 -58.6886 89.0268 -58.0411 89.0147C-43.3837 88.7673 -28.7283 88.8035 -14.0671 88.8397C-8.84197 88.8526 -3.6161 88.8655 1.61083 88.8655C7.44259 88.8655 13.2723 88.8837 19.1015 88.902C31.9247 88.942 44.7457 88.9821 57.5817 88.8282C67.1817 88.7171 75.5328 90.5781 82.7868 94.4955C90.0409 98.4129 96.2262 104.402 101.472 112.589Z" stroke="#82C65B"/>
</svg>